<svg id="_0352_pilot" xmlns="http://www.w3.org/2000/svg" xmlns:xlink="http://www.w3.org/1999/xlink" viewBox="0 0 500 500" data-imageid="pilot-83" imageName="Pilot" class="illustrations_image" style="width: 166px;"><defs><style>.cls-1_pilot-83{clip-path:url(#clippath);}.cls-2_pilot-83{fill:none;}.cls-2_pilot-83,.cls-3_pilot-83,.cls-4_pilot-83,.cls-5_pilot-83,.cls-6_pilot-83,.cls-7_pilot-83,.cls-8_pilot-83,.cls-9_pilot-83,.cls-10_pilot-83,.cls-11_pilot-83,.cls-12_pilot-83,.cls-13_pilot-83,.cls-14_pilot-83,.cls-15_pilot-83,.cls-16_pilot-83,.cls-17_pilot-83,.cls-18_pilot-83,.cls-19_pilot-83,.cls-20_pilot-83,.cls-21_pilot-83,.cls-22_pilot-83,.cls-23_pilot-83,.cls-24_pilot-83,.cls-25_pilot-83,.cls-26_pilot-83,.cls-27_pilot-83,.cls-28_pilot-83,.cls-29_pilot-83,.cls-30_pilot-83,.cls-31_pilot-83,.cls-32_pilot-83,.cls-33_pilot-83,.cls-34_pilot-83,.cls-35_pilot-83,.cls-36_pilot-83,.cls-37_pilot-83,.cls-38_pilot-83,.cls-39_pilot-83,.cls-40_pilot-83,.cls-41_pilot-83,.cls-42_pilot-83,.cls-43_pilot-83,.cls-44_pilot-83,.cls-45_pilot-83,.cls-46_pilot-83,.cls-47_pilot-83,.cls-48_pilot-83,.cls-49_pilot-83,.cls-50_pilot-83,.cls-51_pilot-83,.cls-52_pilot-83,.cls-53_pilot-83{stroke-width:0px;}.cls-3_pilot-83{fill:url(#linear-gradient);}.cls-4_pilot-83{fill:url(#linear-gradient-38-pilot-83);}.cls-5_pilot-83{fill:url(#linear-gradient-33-pilot-83);}.cls-6_pilot-83{fill:url(#linear-gradient-29-pilot-83);}.cls-7_pilot-83{fill:url(#linear-gradient-32-pilot-83);}.cls-8_pilot-83{fill:url(#linear-gradient-30-pilot-83);}.cls-9_pilot-83{fill:url(#linear-gradient-31-pilot-83);}.cls-10_pilot-83{fill:url(#linear-gradient-36-pilot-83);}.cls-11_pilot-83{fill:url(#linear-gradient-39-pilot-83);}.cls-12_pilot-83{fill:url(#linear-gradient-34-pilot-83);}.cls-13_pilot-83{fill:url(#linear-gradient-37-pilot-83);}.cls-14_pilot-83{fill:url(#linear-gradient-35-pilot-83);}.cls-15_pilot-83{fill:url(#linear-gradient-28-pilot-83);}.cls-16_pilot-83{fill:url(#linear-gradient-25-pilot-83);}.cls-17_pilot-83{fill:url(#linear-gradient-11-pilot-83);}.cls-18_pilot-83{fill:url(#linear-gradient-12-pilot-83);}.cls-19_pilot-83{fill:url(#linear-gradient-13-pilot-83);}.cls-20_pilot-83{fill:url(#linear-gradient-10-pilot-83);}.cls-21_pilot-83{fill:url(#linear-gradient-17-pilot-83);}.cls-22_pilot-83{fill:url(#linear-gradient-16-pilot-83);}.cls-23_pilot-83{fill:url(#linear-gradient-19-pilot-83);}.cls-24_pilot-83{fill:url(#linear-gradient-15-pilot-83);}.cls-25_pilot-83{fill:url(#linear-gradient-23-pilot-83);}.cls-26_pilot-83{fill:url(#linear-gradient-21-pilot-83);}.cls-27_pilot-83{fill:url(#linear-gradient-18-pilot-83);}.cls-28_pilot-83{fill:url(#linear-gradient-14-pilot-83);}.cls-29_pilot-83{fill:url(#linear-gradient-22-pilot-83);}.cls-30_pilot-83{fill:url(#linear-gradient-20-pilot-83);}.cls-31_pilot-83{fill:url(#linear-gradient-27-pilot-83);}.cls-32_pilot-83{fill:url(#linear-gradient-24-pilot-83);}.cls-33_pilot-83{fill:url(#linear-gradient-26-pilot-83);}.cls-34_pilot-83{fill:url(#linear-gradient-45-pilot-83);}.cls-35_pilot-83{fill:url(#linear-gradient-46-pilot-83);}.cls-36_pilot-83{fill:url(#linear-gradient-44-pilot-83);}.cls-37_pilot-83{fill:url(#linear-gradient-48-pilot-83);}.cls-38_pilot-83{fill:url(#linear-gradient-47-pilot-83);}.cls-39_pilot-83{fill:url(#linear-gradient-42-pilot-83);}.cls-40_pilot-83{fill:url(#linear-gradient-43-pilot-83);}.cls-41_pilot-83{fill:url(#linear-gradient-40-pilot-83);}.cls-42_pilot-83{fill:url(#linear-gradient-41-pilot-83);}.cls-43_pilot-83{fill:url(#linear-gradient-4-pilot-83);}.cls-44_pilot-83{fill:url(#linear-gradient-2-pilot-83);}.cls-45_pilot-83{fill:url(#linear-gradient-3-pilot-83);}.cls-46_pilot-83{fill:url(#linear-gradient-8-pilot-83);}.cls-47_pilot-83{fill:url(#linear-gradient-9-pilot-83);}.cls-48_pilot-83{fill:url(#linear-gradient-7-pilot-83);}.cls-49_pilot-83{fill:url(#linear-gradient-5-pilot-83);}.cls-50_pilot-83{fill:url(#linear-gradient-6-pilot-83);}.cls-51_pilot-83{fill:#ffb4a3;}.cls-52_pilot-83,.cls-53_pilot-83{fill:#68e1fd;}.cls-53_pilot-83{isolation:isolate;opacity:.25;}</style><linearGradient id="linear-gradient-pilot-83" x1="902.52" y1="3885.24" x2="878.31" y2="3983.96" gradientTransform="translate(-485.67 4144.43) scale(1 -1)" gradientUnits="userSpaceOnUse"><stop offset=".02" stop-color="#fff" stop-opacity="0"/><stop offset=".39" stop-color="#fff" stop-opacity=".39"/><stop offset="1" stop-color="#fff"/></linearGradient><linearGradient id="linear-gradient-2-pilot-83" x1="677.74" y1="3699.95" x2="670.37" y2="3813.45" xlink:href="#linear-gradient-pilot-83"/><linearGradient id="linear-gradient-3-pilot-83" x1="648.92" y1="3968.9" x2="620.29" y2="4055.5" xlink:href="#linear-gradient-pilot-83"/><linearGradient id="linear-gradient-4-pilot-83" x1="733.88" y1="3966.57" x2="731.93" y2="3947.09" gradientTransform="translate(-485.67 4144.43) scale(1 -1)" gradientUnits="userSpaceOnUse"><stop offset="0" stop-color="#000"/><stop offset="1" stop-color="#000" stop-opacity="0"/></linearGradient><linearGradient id="linear-gradient-5-pilot-83" x1="661.93" y1="3958.86" x2="587.75" y2="3943.34" gradientTransform="translate(-485.67 4144.43) scale(1 -1)" gradientUnits="userSpaceOnUse"><stop offset="0" stop-color="#231f20" stop-opacity="0"/><stop offset="1" stop-color="#231f20"/></linearGradient><linearGradient id="linear-gradient-6-pilot-83" x1="683.06" y1="3913.86" x2="644.56" y2="3997.98" xlink:href="#linear-gradient-5-pilot-83"/><linearGradient id="linear-gradient-7-pilot-83" x1="731.14" y1="3865.24" x2="711.59" y2="4044.04" xlink:href="#linear-gradient-pilot-83"/><linearGradient id="linear-gradient-8-pilot-83" x1="725.62" y1="3968.09" x2="704.09" y2="3937.31" gradientTransform="translate(-471 4161.03) scale(1 -1)" xlink:href="#linear-gradient-5-pilot-83"/><linearGradient id="linear-gradient-9-pilot-83" x1="774.4" y1="3965.58" x2="685.5" y2="3838.52" xlink:href="#linear-gradient-5-pilot-83"/><linearGradient id="linear-gradient-10-pilot-83" x1="724.27" y1="3881.61" x2="882.84" y2="3881.61" xlink:href="#linear-gradient-5-pilot-83"/><linearGradient id="linear-gradient-11-pilot-83" x1="751.84" y1="3930.4" x2="947.4" y2="3752.31" xlink:href="#linear-gradient-5-pilot-83"/><linearGradient id="linear-gradient-12-pilot-83" x1="575.73" y1="3930.36" x2="667.23" y2="3870.99" gradientTransform="translate(-471 4161.03) scale(1 -1)" xlink:href="#linear-gradient-pilot-83"/><linearGradient id="linear-gradient-13-pilot-83" x1="584.23" y1="3926.61" x2="658.9" y2="3878.17" gradientTransform="translate(-471 4161.03) scale(1 -1)" xlink:href="#linear-gradient-pilot-83"/><linearGradient id="linear-gradient-14-pilot-83" x1="586.67" y1="3919.72" x2="639.05" y2="3885.72" gradientTransform="translate(-471 4161.03) scale(1 -1)" xlink:href="#linear-gradient-pilot-83"/><linearGradient id="linear-gradient-15-pilot-83" x1="802.47" y1="3958.21" x2="857.89" y2="3946.1" xlink:href="#linear-gradient-5-pilot-83"/><linearGradient id="linear-gradient-16-pilot-83" x1="810.79" y1="3956.36" x2="836.48" y2="3950.75" xlink:href="#linear-gradient-5-pilot-83"/><linearGradient id="linear-gradient-17-pilot-83" x1="806.82" y1="3956.91" x2="854.15" y2="3946.56" xlink:href="#linear-gradient-5-pilot-83"/><linearGradient id="linear-gradient-18-pilot-83" x1="846.79" y1="3937.07" x2="823.67" y2="3904" xlink:href="#linear-gradient-5-pilot-83"/><linearGradient id="linear-gradient-19-pilot-83" x1="845.85" y1="3934.5" x2="826.69" y2="3907.1" xlink:href="#linear-gradient-5-pilot-83"/><clipPath id="clippath_pilot-83"><path class="cls-2_pilot-83" d="M235.82,218.24s25.88-1.84,30.22-4.48c2.98-1.81,5.44-10.44,6.7-15.7.59-2.49,27.91-1.06,27.91-1.06,0,0-3.5-13.36-4.5-17.22-.25-.93-31.13,7.47-31.36,6.4-2.76-10.41-.75-27.4-2.79-27.67-3.1-.31-24.68,11.02-24.68,11.02l-33.7,35.84,2.85,2.04c6.23,4.42,12.55,8.36,19.93,9.36l9.41,1.47Z"/></clipPath><linearGradient id="linear-gradient-20-pilot-83" x1="725.17" y1="3929.98" x2="721.68" y2="3940.91" xlink:href="#linear-gradient-4-pilot-83"/><linearGradient id="linear-gradient-21-pilot-83" x1="704.55" y1="3938.38" x2="712.32" y2="3938.38" xlink:href="#linear-gradient-4-pilot-83"/><linearGradient id="linear-gradient-22-pilot-83" x1="750.16" y1="3954.9" x2="790.77" y2="3954.9" xlink:href="#linear-gradient-4-pilot-83"/><linearGradient id="linear-gradient-23-pilot-83" x1="779.69" y1="3898.09" x2="728.54" y2="3945.36" xlink:href="#linear-gradient-4-pilot-83"/><linearGradient id="linear-gradient-24-pilot-83" x1="737.84" y1="3960.36" x2="736.61" y2="3950.65" xlink:href="#linear-gradient-4-pilot-83"/><linearGradient id="linear-gradient-25-pilot-83" x1="736.66" y1="3959.13" x2="737.49" y2="3940.86" xlink:href="#linear-gradient-4-pilot-83"/><linearGradient id="linear-gradient-26-pilot-83" x1="731.03" y1="3950.95" x2="734.03" y2="3950.95" xlink:href="#linear-gradient-4-pilot-83"/><linearGradient id="linear-gradient-27-pilot-83" x1="734.88" y1="3950.99" x2="737.14" y2="3950.99" xlink:href="#linear-gradient-4-pilot-83"/><linearGradient id="linear-gradient-28-pilot-83" x1="743.86" y1="3949.98" x2="735.48" y2="3954.36" xlink:href="#linear-gradient-4-pilot-83"/><linearGradient id="linear-gradient-29-pilot-83" x1="722.5" y1="3985.32" x2="723.82" y2="3974.53" gradientTransform="translate(-471 4161.03) scale(1 -1)" xlink:href="#linear-gradient-4-pilot-83"/><linearGradient id="linear-gradient-30-pilot-83" x1="736.5" y1="3957.77" x2="750.08" y2="3962.42" xlink:href="#linear-gradient-4-pilot-83"/><linearGradient id="linear-gradient-31-pilot-83" x1="772.61" y1="3953.47" x2="780.22" y2="3955.53" xlink:href="#linear-gradient-4-pilot-83"/><linearGradient id="linear-gradient-32-pilot-83" x1="769.92" y1="3952.39" x2="774.79" y2="3953.71" xlink:href="#linear-gradient-4-pilot-83"/><linearGradient id="linear-gradient-33-pilot-83" x1="765.39" y1="3953.32" x2="770.52" y2="3954.71" xlink:href="#linear-gradient-4-pilot-83"/><linearGradient id="linear-gradient-34-pilot-83" x1="759.67" y1="3952.25" x2="766.23" y2="3954.03" xlink:href="#linear-gradient-4-pilot-83"/><linearGradient id="linear-gradient-35-pilot-83" x1="756.32" y1="3950.97" x2="761.7" y2="3952.44" xlink:href="#linear-gradient-4-pilot-83"/><linearGradient id="linear-gradient-36-pilot-83" x1="752.67" y1="3951.79" x2="756.99" y2="3952.96" xlink:href="#linear-gradient-4-pilot-83"/><linearGradient id="linear-gradient-37-pilot-83" x1="743.95" y1="3925.37" x2="733.24" y2="3943.18" xlink:href="#linear-gradient-4-pilot-83"/><linearGradient id="linear-gradient-38-pilot-83" x1="705.44" y1="3925.81" x2="711.34" y2="3942.34" xlink:href="#linear-gradient-4-pilot-83"/><linearGradient id="linear-gradient-39-pilot-83" x1="700.38" y1="3942.18" x2="710.47" y2="3935.5" xlink:href="#linear-gradient-4-pilot-83"/><linearGradient id="linear-gradient-40-pilot-83" x1="712.56" y1="3932.85" x2="723.86" y2="3932.85" xlink:href="#linear-gradient-4-pilot-83"/><linearGradient id="linear-gradient-41-pilot-83" x1="718.71" y1="3931.92" x2="726.09" y2="3932.85" xlink:href="#linear-gradient-4-pilot-83"/><linearGradient id="linear-gradient-42-pilot-83" x1="726.38" y1="3952.79" x2="704.03" y2="3924.55" xlink:href="#linear-gradient-pilot-83"/><linearGradient id="linear-gradient-43-pilot-83" x1="704.75" y1="3956.12" x2="712.51" y2="3930.2" xlink:href="#linear-gradient-pilot-83"/><linearGradient id="linear-gradient-44-pilot-83" x1="750.93" y1="3967.86" x2="735.56" y2="3966.47" xlink:href="#linear-gradient-4-pilot-83"/><linearGradient id="linear-gradient-45-pilot-83" x1="736.34" y1="3963.87" x2="736.57" y2="3971.61" xlink:href="#linear-gradient-4-pilot-83"/><linearGradient id="linear-gradient-46-pilot-83" x1="735.11" y1="3973.34" x2="731.43" y2="3964.68" xlink:href="#linear-gradient-4-pilot-83"/><linearGradient id="linear-gradient-47-pilot-83" x1="711.89" y1="3986.33" x2="719.42" y2="3971.73" gradientTransform="translate(-471 4161.03) scale(1 -1)" xlink:href="#linear-gradient-4-pilot-83"/><linearGradient id="linear-gradient-48-pilot-83" x1="715.08" y1="3987.97" x2="722.6" y2="3973.38" gradientTransform="translate(-471 4161.03) scale(1 -1)" xlink:href="#linear-gradient-4-pilot-83"/></defs><g id="background_pilot-83"><path class="cls-53_pilot-83 targetColor" d="M489.82,260.82c-5.32,15.97-14.37,30.41-23.9,44.28-10.17,14.82-21.17,29.38-35.28,40.49-16.84,13.23-37.36,20.95-54.88,33.25-15.4,10.83-28.17,24.98-42.75,36.91-37.13,30.09-84.35,44.85-132,41.25-13.84-1.12-27.77-3.87-40.06-10.36-4.22-2.24-8.24-4.84-11.99-7.8-15.93-12.35-28.08-29.73-42.76-43.92-28.8-27.82-68.97-45.09-88.46-79.96-1.55-2.83-2.95-5.74-4.18-8.72-9.04-21.54-9.51-46.45-3.16-69.04,6.06-21.62,17.98-41.23,32.88-58.12,2.81-3.17,5.72-6.25,8.72-9.24,13.3-13.23,28.56-24.91,38.68-40.68,1.44-2.25,2.79-4.6,4.08-6.96,4.37-8,8.26-16.31,14.27-23.11,9.18-10.36,22.34-16.19,35.16-21.34,24.91-10.15,50.59-19.53,77.42-20.91,23.44-1.25,46.65,3.81,68.49,11.88,31.51,11.58,59.49,28.32,92.05,36.96,17.7,4.72,35.07,10.72,50.78,19.43,14.9,8.01,27.98,19.04,38.38,32.38,10.33,13.54,17.56,29.19,21.17,45.84,4.29,19.06,3.38,38.92-2.65,57.51Z" style="fill: rgb(56, 152, 236);"/><path class="cls-3_pilot-83" d="M492.42,203.33c-3.11,2.88-6.07,5.92-8.87,9.1-2.83,3.41-5.12,7.3-8.37,10.32-5.85,5.49-14.32,7.62-22.3,6.85s-15.5-4.23-22.15-8.72c-.81,9.2-10.57,14.94-19.65,16.7-15.18,2.81-30.84-1.04-42.99-10.57-7.61,9.05-19.52,13.28-31.13,11.07-3.16-.49-6.11-1.87-8.52-3.97-2.06-2.26-3.65-4.92-4.67-7.81-2.42-5.62-4.84-11.25-7.26-16.87-1.92-4.43-3.86-8.99-4.22-13.81-.73-9.85,5.43-19.27,13.6-24.82,8.17-5.55,18.09-7.88,27.86-9.44l37.01,3.49c-2.78-5.13-1.51-11.97,3.52-14.94,5.34-2.88,12-1.27,15.43,3.74,4.17-10.22,8.99-21.17,18.68-26.55,1.45-.8,2.97-1.46,4.55-1.97,14.9,8.01,27.98,19.04,38.38,32.38,10.31,13.54,17.52,29.19,21.11,45.83Z"/><path class="cls-44_pilot-83" d="M354.2,384.05c-2.08,2.1-4.56,3.77-7.3,4.89-23.3,11.11-49.28,15.34-74.89,12.19-3.04-.37-6.29-.82-8.99.61s-4.07,4.12-5.65,6.61c-8.93,14.07-25.54,21.78-42.08,23.89-16.54,2.1-33.24-.64-49.68-3.39-2.99,5.63-9.61,8.19-15.82,9.71l-.88.22c-15.93-12.35-28.08-29.73-42.76-43.92-28.77-27.77-68.93-45.04-88.42-79.91-1.55-2.83-2.95-5.74-4.18-8.72,10.41-13.16,26.67-21.17,46.23-18.06,17.15,2.96,31.4,14.88,37.36,31.23,1.08-11.21,16.87-15.37,26.49-9.63s14.18,17.02,18.06,27.53c14.79-17.96,41.34-20.53,59.3-5.74,4.17,3.43,7.64,7.64,10.22,12.38,17.55-17,45.26-17.81,69.18-12.9,17.92,3.67,37.72,12.45,42.34,30.12,8.36-3.15,18.17-4.32,25.92.14,7.75,4.46,11.56,16.04,5.57,22.73Z"/><path class="cls-45_pilot-83" d="M272.38,140c-.24,3.11-3.8,4.65-6.8,5.5-71.02,20.35-144.31,31.67-218.16,33.71h-4.17c2.81-3.17,5.72-6.25,8.72-9.24,13.3-13.23,28.56-24.91,38.68-40.68,1.44-2.25,2.79-4.6,4.08-6.96,4.66,0,8.98.57,9.27,2.34-2-12.68,6.66-24.58,19.33-26.57,7.13-1.13,14.38,1.13,19.62,6.1,3.99-9.56,10.56-19.29,20.65-21.66,8.83-2.05,18.18,2.29,24.46,8.84s10.1,14.94,13.8,23.29c13.79-4.66,30.41,1.61,37.7,14.21,10.12-7.07,26.15-3.2,31.84,7.72.63,1.02.97,2.2.98,3.4Z"/></g><g id="character_pilot-83"><path class="cls-52_pilot-83 targetColor" d="M243.48,185.52c-.19,1.05-.27,2.12-.24,3.19.03,1.08.47,2.1,1.25,2.85.77.61,1.75.88,2.73.77.97-.11,1.9-.43,2.74-.92.39-.2.74-.48,1.03-.81.43-.72.6-1.57.46-2.4-.18-2.75-.51-5.49-.97-8.21-.04-.64-.24-1.25-.57-1.79-.96-1.25-4.67-2.49-5.79-.83-.64.92-.3,2.49-.32,3.47-.01,1.57-.11,3.13-.31,4.68Z" style="fill: rgb(56, 152, 236);"/><path class="cls-43_pilot-83" d="M243.48,185.52c-.19,1.05-.27,2.12-.24,3.19.03,1.08.47,2.1,1.25,2.85.77.61,1.75.88,2.73.77.97-.11,1.9-.43,2.74-.92.39-.2.74-.48,1.03-.81.43-.72.6-1.57.46-2.4-.18-2.75-.51-5.49-.97-8.21-.04-.64-.24-1.25-.57-1.79-.96-1.25-4.67-2.49-5.79-.83-.64.92-.3,2.49-.32,3.47-.01,1.57-.11,3.13-.31,4.68Z"/><path class="cls-52_pilot-83 targetColor" d="M162.37,215.85s-50.52-32.12-41.44-43.06c0,0,2.57-6.23,15.13-4.66,12.57,1.57,93.82,32.59,93.82,32.59l-67.51,15.13Z" style="fill: rgb(56, 152, 236);"/><path class="cls-49_pilot-83" d="M229.88,200.72l-24.31,5.45-43.2,9.69s-50.52-32.13-41.44-43.08c1.01-1.85,2.7-3.24,4.72-3.86,3.35-1.13,6.93-1.4,10.41-.8,12.58,1.63,93.82,32.59,93.82,32.59Z"/><path class="cls-50_pilot-83" d="M229.88,200.72l-24.31,5.45-38.08,5.27s-48.87-31.13-41.84-42.52c3.35-1.13,6.93-1.4,10.41-.8,12.58,1.63,93.82,32.59,93.82,32.59Z"/><path class="cls-52_pilot-83 targetColor" d="M346.39,219.55c-.39,2.45-1.24,4.8-2.49,6.94,0,0-74.18,44.07-117.65,51.84-38.75,6.91-69.1,8.89-81.83-16.72-1.65-3.39-2.94-6.94-3.84-10.6-.61-3.81-.41-7.7.6-11.42,2.63-10.61,12.19-25.82,44.11-33.28,51.83-12.1,123.54-2.49,125.09-2.49,1.25,0,20.97,2.65,27.07,3.47l1.78.24s8.32,3.11,7.15,12.02Z" style="fill: rgb(56, 152, 236);"/><ellipse class="cls-52_pilot-83 targetColor" cx="149.33" cy="257.85" rx="26.38" ry="35.6" style="fill: rgb(56, 152, 236);"/><path class="cls-48_pilot-83" d="M337.51,207.31c.02,1.96-1.1,3.75-2.86,4.6-6.99,3.74-116.41,20.49-140.15,27.46-23.74,6.97-42.84,4.66-42.84,4.66l-10.24-3.25-.19-1.25c2.63-10.61,12.19-25.82,44.11-33.28,51.83-12.1,123.54-2.49,125.09-2.49,1.3.07,20.97,2.73,27.07,3.55Z"/><ellipse class="cls-46_pilot-83" cx="243.85" cy="208.33" rx="30.57" ry="8.23"/><path class="cls-47_pilot-83" d="M346.39,219.55c-.39,2.45-1.24,4.8-2.49,6.94,0,0-74.18,44.07-117.65,51.84-38.75,6.91-69.1,8.89-81.83-16.72l-.11-2.83s6.53-.93,23.29,4.03c16.76,4.97,70.76-2.49,94.36-11.21,23.6-8.72,84.32-32.49,84.32-32.49l.11.44Z"/><path class="cls-52_pilot-83 targetColor" d="M393.2,282.85l-13.4,5.88c-34.56,8.88-102.88-11.07-136.81-22.34-3.35-1.1-5.17-4.7-4.07-8.05.68-2.08,2.38-3.66,4.5-4.19l1.06-.27,75.26-19.17,73.71,36.11c.57.27,1.1.63,1.57,1.06,2.7,2.49,2.87,6.7.38,9.4-.62.67-1.37,1.21-2.2,1.57Z" style="fill: rgb(56, 152, 236);"/><path class="cls-20_pilot-83" d="M393.2,282.85l-13.4,5.88c-34.56,8.88-102.88-11.07-136.81-22.34-3.35-1.1-5.17-4.7-4.07-8.05.68-2.08,2.38-3.66,4.5-4.19l1.06-.27,75.26-19.17,73.71,36.11c.57.27,1.1.63,1.57,1.06,2.7,2.49,2.87,6.7.38,9.4-.62.67-1.37,1.21-2.2,1.57Z"/><path class="cls-52_pilot-83 targetColor" d="M395.06,271.84l-11.96,5.24c-34.51,8.88-102.88-11.07-136.82-22.32-.62-.21-1.21-.51-1.76-.88l75.26-19.17,73.71,36.11c.57.26,1.1.6,1.57,1.01Z" style="fill: rgb(56, 152, 236);"/><path class="cls-17_pilot-83" d="M395.06,271.84l-11.96,5.24c-34.51,8.88-102.88-11.07-136.82-22.32-.62-.21-1.21-.51-1.76-.88l75.26-19.17,73.71,36.11c.57.26,1.1.6,1.57,1.01Z"/><ellipse class="cls-18_pilot-83" cx="148.97" cy="259.38" rx="32.32" ry="43.62"/><ellipse class="cls-19_pilot-83" cx="149.33" cy="257.85" rx="26.38" ry="35.6"/><ellipse class="cls-28_pilot-83" cx="141" cy="257.76" rx="18.51" ry="24.98"/><path class="cls-52_pilot-83 targetColor" d="M317.58,204.76s16.76-30.41,25.45-31.03c8.69-.62.31,36.31.31,36.31l-25.77-5.28Z" style="fill: rgb(56, 152, 236);"/><path class="cls-24_pilot-83" d="M343.33,210.04l-22-4.51-3.74-.77s16.75-30.42,25.45-31.03c.93-.09,1.84.35,2.34,1.13,4.53,6.18-2.05,35.18-2.05,35.18Z"/><path class="cls-22_pilot-83" d="M347.07,210.85l-25.77-5.27h0l22,4.51s6.59-29,2.04-35.18c.44-.17.91-.28,1.38-.32,8.7-.67.34,36.26.34,36.26Z"/><path class="cls-21_pilot-83" d="M343.33,210.04l-22-4.51c.72-1.25,15.31-27.4,24.05-30.67,4.55,6.18-2.04,35.18-2.04,35.18Z"/><path class="cls-52_pilot-83 targetColor" d="M333.48,225.17s16.3,5.12,26.08,3.74c9.78-1.38-13.28-9.84-13.28-9.84l-12.8,6.1Z" style="fill: rgb(56, 152, 236);"/><path class="cls-27_pilot-83" d="M361.96,227.68c0,.55-.77.97-2.4,1.25-9.78,1.39-26.08-3.74-26.08-3.74l12.8-6.13h0c1.05.44,16,5.97,15.68,8.62Z"/><path class="cls-23_pilot-83" d="M361.96,227.68c-9.8,1.25-25.77-3.74-25.77-3.74l10.14-4.79c1,.35,15.95,5.88,15.63,8.53Z"/><path class="cls-52_pilot-83 targetColor" d="M201.47,203.67s19.49-14.94,22.04-15.83,27.16,28.56,27.16,28.56c0,0-23.82,9.15-49.2-12.73Z" style="fill: rgb(56, 152, 236);"/><g class="cls-1_pilot-83"><path class="cls-52_pilot-83 targetColor" d="M242.27,196.43l-4.71,5.27c-.28.36-.64.65-1.05.86-.31.11-.64.16-.97.16-1.14.04-2.29,0-3.42-.12-1.59-.26-3.2-.42-4.81-.49-.37-.02-.75.04-1.1.19-.23.13-.44.29-.62.49-1.05.81-1.69,2.04-1.74,3.36.1.82.48,1.58,1.06,2.17.79.91,1.8,1.6,2.93,2.02,1.53.48,3.12.71,4.72.68,1.44,0,2.9.1,4.35.09,1.12.05,2.23-.15,3.26-.59.81-.48,1.54-1.09,2.14-1.81,1.06-1.13,2.12-2.25,3.1-3.45.67-.73,1.21-1.57,1.59-2.49.34-1.1.46-2.26.34-3.4-.02-1.03-.22-2.06-.57-3.03-.29-.66-1.12-2.08-1.97-2.13s-2.01,1.63-2.53,2.22Z" style="fill: rgb(56, 152, 236);"/><path class="cls-30_pilot-83" d="M242.27,196.43l-4.71,5.27c-.28.36-.64.65-1.05.86-.31.11-.64.16-.97.16-1.14.04-2.29,0-3.42-.12-1.59-.26-3.2-.42-4.81-.49-.37-.02-.75.04-1.1.19-.23.13-.44.29-.62.49-1.05.81-1.69,2.04-1.74,3.36.1.82.48,1.58,1.06,2.17.79.91,1.8,1.6,2.93,2.02,1.53.48,3.12.71,4.72.68,1.44,0,2.9.1,4.35.09,1.12.05,2.23-.15,3.26-.59.81-.48,1.54-1.09,2.14-1.81,1.06-1.13,2.12-2.25,3.1-3.45.67-.73,1.21-1.57,1.59-2.49.34-1.1.46-2.26.34-3.4-.02-1.03-.22-2.06-.57-3.03-.29-.66-1.12-2.08-1.97-2.13s-2.01,1.63-2.53,2.22Z"/><path class="cls-52_pilot-83 targetColor" d="M220.1,207.71c.63.54,1.41.87,2.23.97.83.08,1.66.08,2.49,0,.29,0,.58-.05.85-.16.23-.13.42-.33.55-.56.86-1.42.41-3.26-1.01-4.12-.22-.13-.45-.24-.7-.31-.52-.13-1.06-.17-1.59-.14-.69.01-1.37.06-2.05.15-.56.02-1.09.23-1.51.6-.41.63-.56,1.4-.44,2.14.07.59.8,1.08,1.18,1.43Z" style="fill: rgb(56, 152, 236);"/><path class="cls-26_pilot-83" d="M220.1,207.71c.63.54,1.41.87,2.23.97.83.08,1.66.08,2.49,0,.29,0,.58-.05.85-.16.23-.13.42-.33.55-.56.86-1.42.41-3.26-1.01-4.12-.22-.13-.45-.24-.7-.31-.52-.13-1.06-.17-1.59-.14-.69.01-1.37.06-2.05.15-.56.02-1.09.23-1.51.6-.41.63-.56,1.4-.44,2.14.07.59.8,1.08,1.18,1.43Z"/><path class="cls-52_pilot-83 targetColor" d="M264.75,192.48c2.29.55,4.4,1.66,6.65,2.37,2.21.88,4.69.83,6.86-.15.99-.74,2.06-1.38,3.18-1.91,1.64-.51,3.39.21,4.98.76,3.39,1.13,7.35,1.42,10.3-.6.78-.54,1.53-1.46,1.25-2.35s-1.16-1.05-1.67-1.67c-.98-1.17-.3-2.93-.3-4.46,0-.4-.1-.87-.46-1.02-.16-.04-.33-.04-.5,0-1.2.08-2.35.56-3.25,1.36-1.05.95-1.74,2.29-2.98,2.98-1.58.88-3.54.41-5.29,0-2.49-.59-5.35-.96-7.55.42-.88.77-1.85,1.41-2.9,1.92-2.1.64-4.11-1.16-6.23-1.71-2.49-.64-4.98.44-7.32,1.48-1.15.52-3.51,2.91-.96,3.1.86.07,1.88-.59,2.75-.71,1.15-.14,2.31-.08,3.44.19Z" style="fill: rgb(56, 152, 236);"/><path class="cls-29_pilot-83" d="M296.75,192.91c-.77.57-1.64.99-2.57,1.25-.76.2-1.53.3-2.32.31-1.02.03-2.03-.06-3.03-.26-.54-.1-1.08-.23-1.61-.39-.24,0-.49-.14-.72-.22-.65-.21-1.32-.46-1.98-.65-.49-.14-1-.23-1.51-.27-.52-.05-1.04,0-1.53.16-.74.27-1.42.66-2.03,1.16-.37.26-.75.54-1.15.76l-.22.11c-.86.41-1.81.63-2.76.64-.46.04-.91.04-1.37,0-.85-.1-1.68-.28-2.49-.54l-.3-.1c-.46-.15-.91-.32-1.36-.5-1.62-.7-3.28-1.3-4.98-1.78-1.13-.28-2.3-.36-3.46-.22-.87.11-1.89.78-2.75.71-2.55-.19-.19-2.58.97-3.1,2.3-1.05,4.86-2.12,7.31-1.48.55.16,1.09.36,1.62.6.74.38,1.5.71,2.28.98.67.25,1.39.32,2.09.19h.25c.7-.26,1.35-.66,1.91-1.16.32-.27.65-.53,1-.76.27-.16.54-.3.82-.42.84-.34,1.73-.51,2.63-.52.79-.02,1.58.04,2.37.17.59.1,1.16.21,1.72.35l.64.15c.65.15,1.31.25,1.98.31.69.08,1.39.01,2.05-.19.22-.08.43-.17.64-.29.54-.33,1.01-.75,1.41-1.25.49-.61,1.01-1.19,1.57-1.74.34-.3.71-.56,1.11-.77.67-.35,1.4-.55,2.15-.61.16-.01.33,0,.49.06.34.22.51.62.46,1.02,0,1.53-.68,3.29.3,4.46.5.61,1.39.93,1.67,1.67s-.5,1.67-1.28,2.17Z"/><path class="cls-52_pilot-83 targetColor" d="M253.37,192.1c1.57-.09,3.14.06,4.66.45,1.53.4,2.91,1.27,3.92,2.49,1.05,1.4,1.64,3.09,1.69,4.83.04,1.74-.06,3.47-.3,5.19-.4,4.05-.51,8.12-.32,12.18,0,.97.61,6.05-.07,6.74-.44.44.42.88-.19,1.02-4.98,1.25-13.82.61-18.51-1.38-1.24-.41-2.29-1.25-2.98-2.35-.64-1.25,1.08-6.23,1.25-7.57.62-4.23,1.08-8.49,1.36-12.75-.02-1.94.1-3.87.36-5.79.29-1.34,1.16-1.72,2.4-2.04,2.2-.59,4.45-.93,6.72-1.01Z" style="fill: rgb(56, 152, 236);"/><path class="cls-25_pilot-83" d="M257.43,214.23c-.09.87-.43,1.7-.96,2.4-.46.47-1.03.81-1.66,1.01-2.96,1.12-6.33.95-9.15,2.34-.19.09-.37.21-.52.35-.49.62-.49,1.51,0,2.13.96,1.41,2.83,1.79,4.52,2.05,4.02.81,8.14.98,12.22.51.22-.01.44-.1.61-.24.14-.16.23-.36.25-.57.92-4.07.2-8.31.19-12.45,0-2.4.85-8.46.68-10.86-.02-1.37-.27-2.73-.73-4.02-.37-.95-1.48-3.05-2.14-1.11-1.16,4.25-1.99,8.59-2.49,12.96-.24,1.82-.46,3.66-.81,5.49Z"/><path class="cls-51_pilot-83" d="M249.58,195.4c-.7-.11-1.1-.81-.78-2.49,0-.19.09-.37.14-.56s0,0,0-.1h0c.07-.26.16-.52.25-.78.24-.63.37-1.29.37-1.97-.07-.48-.02-.98.12-1.44.17-.38.44-.71.78-.95.76-.59,2.96-1.68,3.4-.24.19.62.7.54.68,1.17-.04.91.12,1.82.49,2.65.47.9-3.74,4.98-5.45,4.71Z"/><path class="cls-32_pilot-83" d="M249.08,191.94s3.91-1.48,4.67-3.84l-4.17,1.36s-.1,2.2-.5,2.48Z"/><path class="cls-52_pilot-83 targetColor" d="M245.62,189.94c-.36.7-.47,1.5-.32,2.28-.35-.19-.79-.08-1.01.26-.18.34-.27.73-.25,1.12,0,1.05,0,2.29.93,2.83.36.18.76.28,1.17.3,2.5.21,5.02-.09,7.4-.88.48-.14.93-.35,1.34-.64.6-.45,1.03-1.15,1.76-1.25.36-.09.75,0,1.12-.11.75-.24,1.15-1.05.91-1.79-.05-.16-.13-.31-.24-.44-.2-.16-.37-.35-.52-.56-.1-.27-.16-.56-.19-.85-.21-.61-.75-1.05-1.39-1.13-1.74-.31-3.54.98-5.26,1.25-1.83.05-3.65-.08-5.45-.39Z" style="fill: rgb(56, 152, 236);"/><path class="cls-16_pilot-83" d="M257.75,193.79c-.36.09-.75,0-1.11.11-.38.11-.73.32-1.01.61-.23.25-.48.48-.75.7-.16.11-.32.21-.5.29-.28.14-.56.26-.86.35-.69.24-1.39.43-2.1.56-.52.12-1.04.2-1.57.26h0c-.86.1-1.73.14-2.59.11h-1.11l-.54-.12c-.25-.04-.48-.12-.7-.24-.9-.54-.98-1.79-.95-2.83-.01-.39.08-.78.27-1.12.21-.34.65-.46,1-.26-.15-.77-.04-1.57.32-2.27.56.16,1.14.24,1.72.22h1.02c.81,0,1.61.06,2.14.06.19.01.38.01.57,0l.4-.07c.61-.17,1.22-.37,1.81-.61.3-.12.59-.22.88-.32.69-.26,1.44-.35,2.17-.25.64.08,1.19.52,1.39,1.13.03.29.09.57.19.85.16.21.34.4.54.56.51.61.43,1.51-.18,2.02-.14.12-.3.2-.47.26Z"/><path class="cls-33_pilot-83" d="M247.85,191.86c.09.37.06.76-.09,1.11-.25.36-.81.44-.95.83-.02.12-.02.23,0,.35.07.88.4,1.74.47,2.63h-1.11l-.56-.12c-.29-.92-.38-1.9-.26-2.86.01-.42.21-.82.54-1.08.15-.1.32-.15.47-.25.25-.19.43-.47.5-.78.11-.51.28-1,.52-1.47h1.02c-.38.47-.58,1.05-.56,1.66Z"/><path class="cls-31_pilot-83" d="M250.6,193.8c-.03.11-.03.23,0,.35.17.78.57,1.49.81,2.25-.52.12-1.04.2-1.57.26h0c-.4-.83-.61-1.73-.64-2.64-.06-.42.07-.84.35-1.16.12-.12.3-.19.42-.32.19-.25.29-.55.27-.86.03-.47.11-.93.25-1.38.19.01.38.01.57,0l.4-.07c-.21.47-.27,1-.16,1.51.07.37.25.78.07,1.12s-.72.52-.78.95Z"/><path class="cls-15_pilot-83" d="M255.58,194.51c-.23.25-.48.48-.75.7-.16.11-.32.21-.5.29-.55-.6-.97-1.3-1.25-2.07-.19-.39-.19-.85,0-1.25.09-.15.24-.27.31-.44.11-.29.11-.62,0-.91-.1-.41-.16-.83-.19-1.25.3-.12.59-.22.88-.32-.02.46.09.92.32,1.32.19.34.46.66.41,1.03s-.51.75-.45,1.17c.02.12.06.23.12.32.32.49.68.95,1.07,1.39Z"/><path class="cls-51_pilot-83" d="M243.68,174.51l.6,10.91c.12,2.32,2.03,4.14,4.35,4.16,4.89,0,6.39-2.81,7.14-4.98s1.42-8.54,0-10.3-9.39-6.09-12.08.21Z"/><polygon class="cls-52_pilot-83 targetColor" points="251.19 181.21 252.78 181.06 252.78 178.11 250.88 178.18 251.19 181.21" style="fill: rgb(56, 152, 236);"/><polygon class="cls-6_pilot-83" points="251.19 181.21 252.78 181.06 252.78 178.11 250.88 178.18 251.19 181.21"/><path class="cls-52_pilot-83 targetColor" d="M253.88,186.91c.2.72.41,1.44.64,2.17.08.4.31.76.64,1.01.44.27,1.05.11,1.48.37.25.16.41.45.68.59.34.11.7.16,1.06.14.51,0,.95.37,1.44.46,1.01.05,1.92-.61,2.19-1.59.23-.96.23-1.96,0-2.93l-.11-.76c-.02-.19-.08-.38-.19-.55-.11-.12-.24-.21-.39-.29-2.81-1.62-3.84-5.26-6.41-7.22-.41-.31-1.66-1-2.15-.44s0,2.27,0,2.88c.2,2.08.57,4.15,1.12,6.16Z" style="fill: rgb(56, 152, 236);"/><path class="cls-8_pilot-83" d="M253.88,186.91c.2.72.41,1.44.64,2.17.08.4.31.76.64,1.01.44.27,1.05.11,1.48.37.25.16.41.45.68.59.34.11.7.16,1.06.14.51,0,.95.37,1.44.46,1.01.05,1.92-.61,2.19-1.59.23-.96.23-1.96,0-2.93l-.11-.76c-.02-.19-.08-.38-.19-.55-.11-.12-.24-.21-.39-.29-2.81-1.62-3.84-5.26-6.41-7.22-.41-.31-1.66-1-2.15-.44s0,2.27,0,2.88c.2,2.08.57,4.15,1.12,6.16Z"/><path class="cls-51_pilot-83" d="M255.87,180.61c.09-.19.21-.37.36-.52.33-.25.73-.4,1.15-.42.18-.06.38-.06.56,0,.13.07.23.18.3.31.14.44.09.93-.14,1.33-.16.36-.36.71-.59,1.03-.19.32-.44.58-.75.78-.3.21-.68.28-1.03.19-.04.01-.08.01-.12,0-.03-.04-.05-.1-.06-.15-.06-.44-.09-.88-.07-1.32.04-.44.17-.86.4-1.23Z"/><path class="cls-9_pilot-83" d="M294.19,194.16c-.76.2-1.53.3-2.32.31,0-.04,0-.07,0-.11-.33-.82-.47-1.7-.4-2.58.07-.87.03-1.75-.14-2.62-.22-.88-.75-1.67-1.01-2.49h0c.49-.61,1.01-1.19,1.57-1.74.34-.3.71-.56,1.11-.77-.09.18-.16.36-.22.55-.35,1-.4,2.07-.16,3.1.17.55.3,1.1.39,1.67.06.78-.21,1.57-.17,2.37.04.81.41,1.56,1.02,2.09,0-.04.15.06.34.22Z"/><path class="cls-7_pilot-83" d="M288.78,194.16c-.54-.1-1.08-.23-1.61-.39v-.64c.07-.88.03-1.76-.14-2.63-.21-.8-.66-1.52-.93-2.3.69.08,1.39.01,2.05-.19,0,.35.06.69.14,1.03.18.54.31,1.09.39,1.66.07.78-.21,1.57-.17,2.37.02.38.11.74.27,1.08Z"/><path class="cls-5_pilot-83" d="M284.47,192.91c-.49-.14-1-.23-1.51-.27-.02-.24-.06-.49-.12-.72-.24-.88-.76-1.68-1.01-2.49-.19-.64-.21-1.31-.06-1.96.59.1,1.16.21,1.72.35l.64.15c-.19.82-.19,1.67,0,2.49.17.54.3,1.1.39,1.66.01.27,0,.53-.04.8Z"/><path class="cls-12_pilot-83" d="M279.41,193.95c-.37.26-.75.54-1.15.76l-.22.11v-.17c.07-.87.02-1.75-.14-2.62-.24-.88-.76-1.68-1.01-2.57-.16-.56-.2-1.14-.11-1.72.84-.34,1.73-.51,2.63-.52l-.09.24c-.33,1-.39,2.06-.16,3.09.17.55.31,1.1.4,1.67,0,.58-.06,1.16-.15,1.73Z"/><path class="cls-14_pilot-83" d="M275.25,195.11c0,.12,0,.23,0,.35-.46.04-.91.04-1.37,0v-.22c.08-.88.03-1.76-.14-2.63-.21-.83-.7-1.57-.96-2.39h.25c.7-.26,1.35-.66,1.91-1.16-.12.72-.1,1.45.06,2.15.18.54.31,1.09.4,1.66.11.66-.2,1.44-.15,2.24Z"/><path class="cls-10_pilot-83" d="M271.09,194.76c-.46-.15-.91-.32-1.36-.5,0-.42-.06-.84-.16-1.25-.22-.9-.75-1.68-1-2.57-.14-.46-.18-.94-.14-1.42.74.38,1.5.71,2.28.98-.04.51.01,1.02.14,1.52.16.55.29,1.11.39,1.67,0,.52-.05,1.04-.15,1.56Z"/><path class="cls-52_pilot-83 targetColor" d="M255.58,200.56c-1.11,2.1-1.99,4.46-3.89,5.89-1.64,1.1-3.58,1.66-5.55,1.61-1.96.06-3.92-.16-5.88,0-.59.02-1.17.16-1.69.42-.69.47-1.19,1.16-1.43,1.96-.51,1.07-.51,2.31,0,3.37.81,1.25,2.49,1.53,4.06,1.61,3.74.16,7.49,0,11.21-.51,1.65-.12,3.24-.63,4.66-1.48.82-.65,1.54-1.41,2.14-2.27,1.96-2.49,3.81-5.29,4.27-8.46.29-2.02,0-6.95-2.4-7.85-2.1-.83-4.71,4.18-5.49,5.7Z" style="fill: rgb(56, 152, 236);"/><path class="cls-13_pilot-83" d="M255.58,200.56c-1.11,2.1-1.99,4.46-3.89,5.89-1.64,1.1-3.58,1.66-5.55,1.61-1.96.06-3.92-.16-5.88,0-.59.02-1.17.16-1.69.42-.69.47-1.19,1.16-1.43,1.96-.51,1.07-.51,2.31,0,3.37.81,1.25,2.49,1.53,4.06,1.61,3.74.16,7.49,0,11.21-.51,1.65-.12,3.24-.63,4.66-1.48.82-.65,1.54-1.41,2.14-2.27,1.96-2.49,3.81-5.29,4.27-8.46.29-2.02,0-6.95-2.4-7.85-2.1-.83-4.71,4.18-5.49,5.7Z"/><path class="cls-52_pilot-83 targetColor" d="M221.61,225.84c-6.12.28-11.31-4.46-11.58-10.59-.28-6.12,4.46-11.31,10.59-11.58,6.12-.28,11.31,4.46,11.58,10.59,0,.17.01.33.01.5.13,5.98-4.61,10.94-10.6,11.08ZM221.61,205.92c-4.89-.22-9.02,3.56-9.24,8.45-.22,4.89,3.56,9.02,8.45,9.24,4.89.22,9.02-3.56,9.24-8.45,0-.13,0-.27,0-.4.07-4.76-3.7-8.7-8.46-8.84Z" style="fill: rgb(56, 152, 236);"/><path class="cls-4_pilot-83" d="M221.61,225.84c-6.12.28-11.31-4.46-11.58-10.59-.28-6.12,4.46-11.31,10.59-11.58,6.12-.28,11.31,4.46,11.58,10.59,0,.17.01.33.01.5.13,5.98-4.61,10.94-10.6,11.08ZM221.61,205.92c-4.89-.22-9.02,3.56-9.24,8.45-.22,4.89,3.56,9.02,8.45,9.24,4.89.22,9.02-3.56,9.24-8.45,0-.13,0-.27,0-.4.07-4.76-3.7-8.7-8.46-8.84Z"/><path class="cls-52_pilot-83 targetColor" d="M223.2,202.05c-.67-.32-1.41-.49-2.15-.49-.53.01-1.06.07-1.58.17-.87.14-1.74.27-2.6.49-.88.15-1.7.56-2.35,1.17-.5.65-.84,1.42-1,2.23-.11.29-.14.62-.06.92.08.16.18.32.3.45l1.02,1.25c.1.14.23.26.37.36.23.11.48.16.73.16.42.05.84.03,1.25-.07.81-.24,1.39-1.01,2.22-1.16.35-.01.7-.06,1.03-.15.47-.3.74-.84.71-1.39-.04-.54.01-1.08.16-1.61.08-.24.29-.42.55-.44,1.08-.15,2.13.59,3.23.52.36,0,.66-.3.66-.66,0-.2-.1-.39-.26-.52-.7-.47-1.45-.88-2.22-1.23Z" style="fill: rgb(56, 152, 236);"/><path class="cls-11_pilot-83" d="M223.2,202.05c-.67-.32-1.41-.49-2.15-.49-.53.01-1.06.07-1.58.17-.87.14-1.74.27-2.6.49-.88.15-1.7.56-2.35,1.17-.5.65-.84,1.42-1,2.23-.11.29-.14.62-.06.92.08.16.18.32.3.45l1.02,1.25c.1.14.23.26.37.36.23.11.48.16.73.16.42.05.84.03,1.25-.07.81-.24,1.39-1.01,2.22-1.16.35-.01.7-.06,1.03-.15.47-.3.74-.84.71-1.39-.04-.54.01-1.08.16-1.61.08-.24.29-.42.55-.44,1.08-.15,2.13.59,3.23.52.36,0,.66-.3.66-.66,0-.2-.1-.39-.26-.52-.7-.47-1.45-.88-2.22-1.23Z"/><path class="cls-52_pilot-83 targetColor" d="M234.69,208.67c-1.67-.39-2.99-1.83-4.69-2-.32,0-.72,0-.85.31-.06.18-.06.37,0,.55.11.42.24.84.4,1.25-.51.03-1.01.14-1.49.31-.49.18-.88.56-1.07,1.05-.26.75.16,1.53.35,2.3.26,1.05.12,2.24.78,3.09.76.75,1.82,1.1,2.88.96,2.32-.04,4.55-.88,6.31-2.39.25-.21.46-.45.62-.73.4-1.22.34-2.55-.17-3.74-.54-.97-2.09-.71-3.06-.95Z" style="fill: rgb(56, 152, 236);"/><path class="cls-41_pilot-83" d="M234.69,208.67c-1.67-.39-2.99-1.83-4.69-2-.32,0-.72,0-.85.31-.06.18-.06.37,0,.55.11.42.24.84.4,1.25-.51.03-1.01.14-1.49.31-.49.18-.88.56-1.07,1.05-.26.75.16,1.53.35,2.3.26,1.05.12,2.24.78,3.09.76.75,1.82,1.1,2.88.96,2.32-.04,4.55-.88,6.31-2.39.25-.21.46-.45.62-.73.4-1.22.34-2.55-.17-3.74-.54-.97-2.09-.71-3.06-.95Z"/><path class="cls-52_pilot-83 targetColor" d="M236.47,208.84c-.13,0-.26.05-.36.14-.07.08-.11.18-.12.29,0,.53.11,1.06.31,1.56.06.28.09.57.11.86.04.3.04.61,0,.91,0,.27-.15.54-.17.82-.02.27.01.55.09.81-.01.54.41.98.94,1,.06,0,.13,0,.19-.01.22,0,.44-.06.64-.16.12-.09.22-.2.3-.34.14-.31.21-.64.2-.98.05-1.28-.01-2.56-.2-3.82,0-.36-.12-.85-.5-1-.46-.14-.95-.17-1.42-.06Z" style="fill: rgb(56, 152, 236);"/><path class="cls-42_pilot-83" d="M236.47,208.84c-.13,0-.26.05-.36.14-.07.08-.11.18-.12.29,0,.53.11,1.06.31,1.56.06.28.09.57.11.86.04.3.04.61,0,.91,0,.27-.15.54-.17.82-.02.27.01.55.09.81-.01.54.41.98.94,1,.06,0,.13,0,.19-.01.22,0,.44-.06.64-.16.12-.09.22-.2.3-.34.14-.31.21-.64.2-.98.05-1.28-.01-2.56-.2-3.82,0-.36-.12-.85-.5-1-.46-.14-.95-.17-1.42-.06Z"/></g><path class="cls-39_pilot-83" d="M201.56,203.67s19.48-14.94,22.03-15.83,27.16,28.56,27.16,28.56c0,0-23.81,9.15-49.19-12.73Z"/><path class="cls-40_pilot-83" d="M232.21,195.6l-24.21,12.88s8.38,5.28,10.24,5.75l22.98-9.17-9-9.46Z"/><path class="cls-52_pilot-83 targetColor" d="M248.67,176.72c1.68.06,3.74.34,4.41,1.84.25.65.36,1.34.34,2.03-.01,2.02.58,3.99,1.71,5.67.77,1.03,1.89,1.74,3.15,1.99.58.11,1.18.11,1.76,0,.58.02,1.15-.18,1.59-.56.42-.44.57-1.06.4-1.64-.29-.91-1.25-1.38-1.82-2.18-.48-1.04-.63-2.2-.44-3.33,0-1.25-.3-2.6-.22-3.87.05-1.05-.08-2.11-.39-3.11-.6-2.02-1.86-3.77-3.59-4.98-2.9-2.02-9.02-2.83-11.44.46-.87,1.56-1.34,3.3-1.38,5.08-.16,1.52-.15,2.22,1.43,2.49,1.5.12,3,.16,4.5.11Z" style="fill: rgb(56, 152, 236);"/><path class="cls-36_pilot-83" d="M248.67,176.72c1.68.06,3.74.34,4.41,1.84.25.65.36,1.34.34,2.03-.01,2.02.58,3.99,1.71,5.67.77,1.03,1.89,1.74,3.15,1.99.58.11,1.18.11,1.76,0,.58.02,1.15-.18,1.59-.56.42-.44.57-1.06.4-1.64-.29-.91-1.25-1.38-1.82-2.18-.48-1.04-.63-2.2-.44-3.33,0-1.25-.3-2.6-.22-3.87.05-1.05-.08-2.11-.39-3.11-.6-2.02-1.86-3.77-3.59-4.98-2.9-2.02-9.02-2.83-11.44.46-.87,1.56-1.34,3.3-1.38,5.08-.16,1.52-.15,2.22,1.43,2.49,1.5.12,3,.16,4.5.11Z"/><path class="cls-52_pilot-83 targetColor" d="M244.25,170.78c-1.25,0-2.68.17-3.33,1.25-.43.91-.37,1.98.16,2.84.18.43.47.81.85,1.08.56.3,1.21.42,1.84.34,2.63-.12,5.26.1,7.83.66,1.41.35,2.75.86,4.16,1.25,1.39.41,2.87.48,4.3.2.57-.06.99-.57.94-1.15,0-.03,0-.07-.01-.1.02-.8-.1-1.61-.36-2.37-.11-.41-.32-.78-.6-1.1-.37-.36-.82-.63-1.32-.77-1.03-.37-2.1-.65-3.18-.85-4.03-.82-8.13-1.28-12.24-1.38" style="fill: rgb(56, 152, 236);"/><path class="cls-34_pilot-83" d="M244.25,170.78c-1.25,0-2.68.17-3.33,1.25-.43.91-.37,1.98.16,2.84.18.43.47.81.85,1.08.56.3,1.21.42,1.84.34,2.63-.12,5.26.1,7.83.66,1.41.35,2.75.86,4.16,1.25,1.39.41,2.87.48,4.3.2.57-.06.99-.57.94-1.15,0-.03,0-.07-.01-.1.02-.8-.1-1.61-.36-2.37-.11-.41-.32-.78-.6-1.1-.37-.36-.82-.63-1.32-.77-1.03-.37-2.1-.65-3.18-.85-4.03-.82-8.13-1.28-12.24-1.38"/><path class="cls-35_pilot-83" d="M253.19,178.83c-.02-.11-.06-.21-.11-.31-.73-1.51-2.73-1.77-4.41-1.84-1.5.04-3-.01-4.5-.16-1.54-.25-3.28-.81-3.13-2.25.12,0,1.92-.17,2.04-.17h3.25c1.64-.12,3.28.21,4.74.96.85.54,1.51,1.35,1.87,2.29.23.46.31.98.24,1.49Z"/><rect class="cls-52_pilot-83 targetColor" x="241.46" y="177.21" width="4.5" height="5.07" rx="2.05" ry="2.05" style="fill: rgb(56, 152, 236);"/><rect class="cls-52_pilot-83 targetColor" x="245.93" y="177.32" width="5.44" height="5.34" rx="2.32" ry="2.32" style="fill: rgb(56, 152, 236);"/><rect class="cls-38_pilot-83" x="241.6" y="177.21" width="3.79" height="5.07" rx="1.88" ry="1.88"/><rect class="cls-37_pilot-83" x="245.36" y="177.32" width="4.58" height="5.34" rx="2.13" ry="2.13"/></g></svg>