<svg xmlns="http://www.w3.org/2000/svg" version="1.1" xmlns:xlink="http://www.w3.org/1999/xlink" viewBox="0 0 14.861637562723196 3.8292979222147068"><g transform="matrix(0.7108569063071448,0,0,0.7108569063071448,6.3812935868059455,1.5297199463420346)"><rect width="16.419215519801355" height="16.419215519801355" x="-6.733185170145071" y="-7.668107759900678" fill="#ffffff"></rect><g transform="matrix(1,0,0,1,0,0)" clip-path="url(#SvgjsClipPath3381)"><g clip-path="url(#SvgjsClipPath33761033a0d7-4ff4-4eb7-add2-0556c3107e4a)"><path d=" M -2.337944018234943 -0.5517865199532742 L -4.565955228420081 1.6756570440636693 L -3.3415424436125956 1.6756570440636693 C -3.3221504983984893 1.675806646651488 -3.30290044327611 1.6723416367294592 -3.284777826792604 1.6654394130360708 C -3.267439813349439 1.6586195159553347 -3.25176224349034 1.6481678027159243 -3.238798487168414 1.634786519953261 L -1.0107872769832484 -0.5932246902318774 L -2.2346324156225528 -0.5932246902318774 C -2.2540232300528045 -0.5933610776924931 -2.273270867625717 -0.5898965029293675 -2.2913970324425437 -0.5830070592042788 C -2.3087711651376623 -0.575681332273338 -2.3245739316869596 -0.565081915685392 -2.337944018234943 -0.5517865199532742 Z" fill="#2fb5e8" transform="matrix(1,0,0,1,0,0)" fill-rule="evenodd"></path></g><g clip-path="url(#SvgjsClipPath33761033a0d7-4ff4-4eb7-add2-0556c3107e4a)"><path d=" M -2.1284825821691196 1.6336512276168644 L -1.5903540147154858 1.0955226601632306 L -2.0626356266579267 0.6232410482208032 L -2.7063463813967576 1.266384156791446 L -2.339079310571333 1.6336512276168644 C -2.3110531033916395 1.6611961947192215 -2.273360838126919 1.67668058477391 -2.2340647694543168 1.6767923364000663 C -2.1945959389790133 1.6767081295061157 -2.156716813606864 1.6612306374185613 -2.1284825821691196 1.6336512276168644 Z" fill="#004883" transform="matrix(1,0,0,1,0,0)" fill-rule="evenodd"></path></g><g clip-path="url(#SvgjsClipPath33761033a0d7-4ff4-4eb7-add2-0556c3107e4a)"><path d=" M -0.9432373829674576 -0.5512188737850792 L -1.481365950421091 -0.012522660163243549 L -0.40283823084101655 1.0660050594168244 L -0.40283823084101655 -0.15840772539065429 C -0.40286966380523825 -0.1778355511603032 -0.4065274019097398 -0.19708680434194742 -0.41362350803681647 -0.21517234221065895 C -0.4206626639527409 -0.23239489693275356 -0.43108602595920775 -0.24802993994245387 -0.44427640111964717 -0.2611516818348631 L -0.734911239238051 -0.551786519953281 C -0.7627278125640604 -0.5796475597382975 -0.8005566112516256 -0.5951880391991425 -0.8399257803550668 -0.5949276287364896 C -0.8787735166570725 -0.5945233539360866 -0.9158951761500917 -0.5788180364582802 -0.9432373829674576 -0.5512188737850792 Z" fill="#1471bc" transform="matrix(1,0,0,1,0,0)" fill-rule="evenodd"></path></g><g clip-path="url(#SvgjsClipPath33761033a0d7-4ff4-4eb7-add2-0556c3107e4a)"><path d=" M -0.4437087549514107 1.1341225996008313 L -0.981837322405072 0.5959940321471976 L -2.0603650419851465 1.6745217517272657 L -0.8359522571776612 1.6745217517272657 C -0.8165557493046762 1.6747252246847886 -0.7972957484099181 1.6712584245237259 -0.7791876403576428 1.6643041206996672 C -0.7618896496985306 1.6574078200300728 -0.7462271900665991 1.6469661802754407 -0.7332083007334527 1.6336512276168644 L -0.44257346261504793 1.3430163894984464 C -0.41461135713182706 1.3152216748610641 -0.39888103687779797 1.2774280482767302 -0.3988647076636376 1.2380018483814372 C -0.3994193109647046 1.198793049046523 -0.4155544284167618 1.1614167643157898 -0.4437087549514107 1.1341225996008384 Z" fill="#1d89cb" transform="matrix(1,0,0,1,0,0)" fill-rule="evenodd"></path></g><g clip-path="url(#SvgjsClipPath33761033a0d7-4ff4-4eb7-add2-0556c3107e4a)"><path d=" M -3.4476922770660288 -0.5512188737850792 L -3.9852531983514536 -0.013090306331438595 L -3.5129715864090403 0.45919130561098875 L -2.8698284778383907 -0.18395180295965435 L -3.2370955486638153 -0.5512188737850792 C -3.264912121989797 -0.5790799135700888 -3.30274092067739 -0.594620393030934 -3.342110089780804 -0.594359982568281 C -3.38162678135437 -0.5945200637257796 -3.4195949512791985 -0.5790061878425139 -3.4476922770660017 -0.5512188737850724 Z" fill="#004883" transform="matrix(1,0,0,1,0,0)" fill-rule="evenodd"></path></g><g clip-path="url(#SvgjsClipPath33761033a0d7-4ff4-4eb7-add2-0556c3107e4a)"><path d=" M -4.632937476267691 1.6336512276168644 L -4.094808908814057 1.0955226601632306 L -5.173336628394132 0.01699494058316242 L -5.173336628394132 1.241407725390641 C -5.1733592189831565 1.2608406441003366 -5.169699584166627 1.2801018799768151 -5.162551351198331 1.2981723422106324 C -5.155795182377091 1.3155435675213698 -5.145334908855713 1.3312339778034565 -5.131898458115502 1.34415168183485 L -4.841263619997097 1.634786519953268 C -4.813237412817403 1.6623314870556252 -4.77554514755271 1.6778158771103135 -4.736249078880081 1.67792762873647 C -4.697358833639607 1.677191126448411 -4.660291664297323 1.6613051967302823 -4.632937476267691 1.6336512276168644 Z" fill="#1471bc" transform="matrix(1,0,0,1,0,0)" fill-rule="evenodd"></path></g><g clip-path="url(#SvgjsClipPath33761033a0d7-4ff4-4eb7-add2-0556c3107e4a)"><path d=" M -5.132466104283737 -0.05169024576904635 L -4.594337536830077 0.4864383216845941 L -3.515809817250002 -0.5920893978954807 L -4.740222602057487 -0.5920893978954807 C -4.759610047930756 -0.5921867277716062 -4.778850591725679 -0.5887234298885172 -4.796987218877505 -0.5818717668678751 C -4.814419564194836 -0.5749661420205281 -4.830117623551546 -0.5643069659141079 -4.842966558501696 -0.5506512276168773 L -5.1336013966201275 -0.2605840356666545 C -5.161408664276299 -0.23273164616227204 -5.176939494595781 -0.19492633551615696 -5.176742505403329 -0.15556949454964525 C -5.176275651555615 -0.1164558176245219 -5.160359443660624 -0.07911394525549609 -5.132466104283737 -0.05169024576904635 Z" fill="#1d89cb" transform="matrix(1,0,0,1,0,0)" fill-rule="evenodd"></path></g></g><g><path d=" M 0.426 0.0014999999999998348 Q 0.5145 0.0014999999999998348 0.5625 0.02024999999999988 Q 0.6105 0.038999999999999924 0.645 0.05999999999999983 Q 0.663 0.07050000000000001 0.67425 0.07574999999999998 Q 0.6855 0.08099999999999996 0.6960000000000001 0.08099999999999996 Q 0.72 0.08099999999999996 0.729 0.014999999999999902 L 0.7635000000000001 0.014999999999999902 Q 0.762 0.04349999999999987 0.75975 0.08324999999999994 Q 0.7575000000000001 0.123 0.75675 0.1874999999999999 Q 0.756 0.2519999999999999 0.756 0.357 L 0.7215 0.357 Q 0.7155 0.2789999999999999 0.6855 0.2054999999999999 Q 0.6555 0.1319999999999999 0.60075 0.08474999999999999 Q 0.546 0.03749999999999987 0.4665 0.03749999999999987 Q 0.3945 0.03749999999999987 0.34800000000000003 0.07799999999999985 Q 0.3015 0.11849999999999994 0.3015 0.1904999999999999 Q 0.3015 0.25049999999999994 0.3315 0.2932499999999999 Q 0.3615 0.33599999999999997 0.41925 0.37649999999999995 Q 0.47700000000000004 0.4169999999999999 0.5595 0.474 Q 0.6315000000000001 0.5205 0.6885 0.567 Q 0.7455 0.6134999999999999 0.78 0.6719999999999999 Q 0.8145 0.7304999999999999 0.8145 0.8114999999999999 Q 0.8145 0.9105 0.76275 0.975 Q 0.711 1.0394999999999999 0.627 1.07175 Q 0.543 1.1039999999999999 0.4425 1.1039999999999999 Q 0.34950000000000003 1.1039999999999999 0.294 1.0859999999999999 Q 0.23850000000000002 1.068 0.201 1.0485 Q 0.168 1.0274999999999999 0.15 1.0274999999999999 Q 0.126 1.0274999999999999 0.117 1.0935 L 0.0825 1.0935 Q 0.0855 1.0574999999999999 0.08625000000000001 1.0095 Q 0.08700000000000001 0.9615 0.08775000000000001 0.88425 Q 0.0885 0.8069999999999999 0.0885 0.6884999999999999 L 0.123 0.6884999999999999 Q 0.129 0.7875 0.15675 0.87375 Q 0.1845 0.96 0.24225 1.0125 Q 0.3 1.065 0.396 1.065 Q 0.47400000000000003 1.065 0.528 1.023 Q 0.582 0.981 0.582 0.897 Q 0.582 0.8039999999999999 0.519 0.74325 Q 0.456 0.6824999999999999 0.357 0.6179999999999999 Q 0.28650000000000003 0.5714999999999999 0.225 0.5249999999999999 Q 0.1635 0.4784999999999999 0.12675 0.4185 Q 0.09 0.35849999999999993 0.09 0.2759999999999999 Q 0.09 0.1815 0.13725 0.12074999999999991 Q 0.1845 0.05999999999999983 0.26175 0.030749999999999833 Q 0.339 0.0014999999999998348 0.426 0.0014999999999998348 M 1.5659765625 1.083 L 1.5659765625 1.053 Q 1.6139765625 1.05 1.6379765625 1.041 Q 1.6619765625 1.032 1.6702265625 1.005 Q 1.6784765625 0.978 1.6784765625 0.9239999999999999 L 1.6784765625 0.17999999999999994 Q 1.6784765625 0.12449999999999994 1.6702265625 0.09824999999999995 Q 1.6619765625 0.07199999999999984 1.6372265625 0.062249999999999917 Q 1.6124765625 0.05249999999999999 1.5659765625 0.050999999999999934 L 1.5659765625 0.020999999999999908 Q 1.6064765625000001 0.022499999999999964 1.6717265625 0.02400000000000002 Q 1.7369765625 0.025499999999999856 1.8014765625 0.025499999999999856 Q 1.8704765625 0.025499999999999856 1.9312265625 0.02400000000000002 Q 1.9919765625 0.022499999999999964 2.0294765625 0.020999999999999908 L 2.0294765625 0.050999999999999934 Q 1.9814765625000001 0.05249999999999999 1.9567265625 0.062249999999999917 Q 1.9319765625 0.07199999999999984 1.9244765625000002 0.09824999999999995 Q 1.9169765625 0.12449999999999994 1.9169765625 0.17999999999999994 L 1.9169765625 0.9239999999999999 Q 1.9169765625 0.978 1.9252265625000002 1.005 Q 1.9334765625 1.032 1.9574765625000001 1.041 Q 1.9814765625000001 1.05 2.0294765625 1.053 L 2.0294765625 1.083 Q 1.9919765625 1.08 1.9312265625 1.07925 Q 1.8704765625 1.0785 1.8014765625 1.0785 Q 1.7369765625 1.0785 1.6717265625 1.07925 Q 1.6064765625000001 1.08 1.5659765625 1.083 M 0.9299765625 1.083 L 0.9299765625 1.053 Q 0.9779765625 1.05 1.0019765625 1.041 Q 1.0259765625 1.032 1.0342265625 1.005 Q 1.0424765625 0.978 1.0424765625 0.9239999999999999 L 1.0424765625 0.17999999999999994 Q 1.0424765625 0.12449999999999994 1.0342265625 0.09824999999999995 Q 1.0259765625 0.07199999999999984 1.0012265625 0.062249999999999917 Q 0.9764765625 0.05249999999999999 0.9299765625 0.050999999999999934 L 0.9299765625 0.020999999999999908 Q 0.9689765625 0.022499999999999964 1.0312265625 0.02400000000000002 Q 1.0934765625 0.025499999999999856 1.1669765625 0.025499999999999856 Q 1.2299765625 0.025499999999999856 1.2914765625 0.02400000000000002 Q 1.3529765625 0.022499999999999964 1.3934765625 0.020999999999999908 L 1.3934765625 0.050999999999999934 Q 1.3454765625 0.05249999999999999 1.3207265625 0.062249999999999917 Q 1.2959765625 0.07199999999999984 1.2884765625 0.09824999999999995 Q 1.2809765625 0.12449999999999994 1.2809765625 0.17999999999999994 L 1.2809765625 0.9239999999999999 Q 1.2809765625 0.978 1.2892265625000001 1.005 Q 1.2974765625 1.032 1.3214765625 1.041 Q 1.3454765625 1.05 1.3934765625 1.053 L 1.3934765625 1.083 Q 1.3529765625 1.08 1.2914765625 1.07925 Q 1.2299765625 1.0785 1.1669765625 1.0785 Q 1.0934765625 1.0785 1.0312265625 1.07925 Q 0.9689765625 1.08 0.9299765625 1.083 M 1.1834765625 0.564 L 1.1834765625 0.5339999999999999 L 1.7759765625 0.5339999999999999 L 1.7759765625 0.564 L 1.1834765625 0.564 M 2.66546484375 0 Q 2.8244648437500004 0 2.9437148437500005 0.0645 Q 3.06296484375 0.1289999999999999 3.1289648437500004 0.24974999999999992 Q 3.1949648437500002 0.37049999999999994 3.1949648437500002 0.5429999999999999 Q 3.1949648437500002 0.711 3.1274648437500003 0.837 Q 3.0599648437500004 0.963 2.9392148437500003 1.0334999999999999 Q 2.81846484375 1.1039999999999999 2.66396484375 1.1039999999999999 Q 2.5049648437500003 1.1039999999999999 2.38571484375 1.0394999999999999 Q 2.26646484375 0.975 2.2004648437500003 0.8534999999999999 Q 2.13446484375 0.732 2.13446484375 0.5609999999999999 Q 2.13446484375 0.3929999999999999 2.2027148437500004 0.2669999999999999 Q 2.2709648437500003 0.1409999999999999 2.3902148437500004 0.07050000000000001 Q 2.50946484375 0 2.66546484375 0 M 2.6594648437500004 0.026999999999999913 Q 2.5754648437500003 0.026999999999999913 2.51321484375 0.09449999999999992 Q 2.4509648437500005 0.16199999999999992 2.41721484375 0.28049999999999997 Q 2.38346484375 0.3989999999999999 2.38346484375 0.5549999999999999 Q 2.38346484375 0.714 2.4217148437500002 0.83175 Q 2.4599648437500004 0.9495 2.52521484375 1.01325 Q 2.5904648437500004 1.077 2.6699648437500003 1.077 Q 2.7539648437500004 1.077 2.81621484375 1.0095 Q 2.8784648437500002 0.942 2.91221484375 0.82275 Q 2.94596484375 0.7035 2.94596484375 0.5489999999999999 Q 2.94596484375 0.38849999999999996 2.90771484375 0.27149999999999996 Q 2.8694648437500003 0.15449999999999997 2.8042148437500005 0.09075 Q 2.7389648437500003 0.026999999999999913 2.6594648437500004 0.026999999999999913 M 3.3015161132812505 0.020999999999999908 Q 3.33901611328125 0.022499999999999964 3.4027661132812503 0.02400000000000002 Q 3.4665161132812505 0.025499999999999856 3.5295161132812503 0.025499999999999856 Q 3.6015161132812503 0.025499999999999856 3.66901611328125 0.02400000000000002 Q 3.73651611328125 0.022499999999999964 3.7650161132812503 0.022499999999999964 Q 3.97351611328125 0.022499999999999964 4.077016113281251 0.10499999999999998 Q 4.18051611328125 0.1874999999999999 4.18051611328125 0.31799999999999995 Q 4.18051611328125 0.372 4.15951611328125 0.4312499999999999 Q 4.13851611328125 0.49049999999999994 4.08826611328125 0.54075 Q 4.03801611328125 0.591 3.9510161132812502 0.6224999999999999 Q 3.8640161132812505 0.6539999999999999 3.7320161132812504 0.6539999999999999 L 3.5790161132812504 0.6539999999999999 L 3.5790161132812504 0.6239999999999999 L 3.7170161132812503 0.6239999999999999 Q 3.8055161132812505 0.6239999999999999 3.8512661132812505 0.5834999999999999 Q 3.8970161132812504 0.5429999999999999 3.9142661132812506 0.477 Q 3.9315161132812504 0.4109999999999999 3.9315161132812504 0.3344999999999999 Q 3.9315161132812504 0.19199999999999995 3.8895161132812506 0.12149999999999994 Q 3.8475161132812503 0.050999999999999934 3.7455161132812504 0.050999999999999934 Q 3.6870161132812505 0.050999999999999934 3.6697661132812502 0.07650000000000001 Q 3.6525161132812505 0.10199999999999998 3.6525161132812505 0.17999999999999994 L 3.6525161132812505 0.9149999999999999 Q 3.6525161132812505 0.9734999999999999 3.6645161132812505 1.002 Q 3.6765161132812505 1.0305 3.7110161132812505 1.0394999999999999 Q 3.7455161132812504 1.0485 3.8130161132812503 1.05 L 3.8130161132812503 1.083 Q 3.7665161132812504 1.0815 3.6930161132812502 1.08 Q 3.61951611328125 1.0785 3.5385161132812506 1.0785 Q 3.4740161132812504 1.0785 3.4125161132812503 1.08 Q 3.35101611328125 1.0815 3.3015161132812505 1.083 L 3.3015161132812505 1.053 Q 3.3495161132812505 1.05 3.3735161132812506 1.041 Q 3.39751611328125 1.032 3.4057661132812505 1.005 Q 3.4140161132812503 0.978 3.4140161132812503 0.9239999999999999 L 3.4140161132812503 0.17999999999999994 Q 3.4140161132812503 0.12449999999999994 3.4057661132812505 0.09824999999999995 Q 3.39751611328125 0.07199999999999984 3.3727661132812505 0.062249999999999917 Q 3.3480161132812505 0.05249999999999999 3.3015161132812505 0.050999999999999934 L 3.3015161132812505 0.020999999999999908 M 5.246995605468751 0.020999999999999908 L 5.246995605468751 0.050999999999999934 Q 5.198995605468751 0.05699999999999994 5.174995605468751 0.07574999999999998 Q 5.150995605468751 0.09449999999999992 5.14274560546875 0.1349999999999999 Q 5.13449560546875 0.1755 5.13449560546875 0.249 L 5.13449560546875 1.0859999999999999 Q 5.11649560546875 1.0845 5.09774560546875 1.0845 Q 5.078995605468751 1.0845 5.057995605468751 1.0859999999999999 L 4.406995605468751 0.2609999999999999 L 4.406995605468751 0.837 Q 4.406995605468751 0.9195 4.41599560546875 0.96375 Q 4.424995605468751 1.008 4.45574560546875 1.02675 Q 4.48649560546875 1.0454999999999999 4.55249560546875 1.053 L 4.55249560546875 1.083 Q 4.52399560546875 1.08 4.47749560546875 1.07925 Q 4.43099560546875 1.0785 4.39049560546875 1.0785 Q 4.355995605468751 1.0785 4.31999560546875 1.07925 Q 4.283995605468751 1.08 4.259995605468751 1.083 L 4.259995605468751 1.053 Q 4.307995605468751 1.0454999999999999 4.331995605468751 1.0274999999999999 Q 4.355995605468751 1.0095 4.36424560546875 0.9682499999999999 Q 4.3724956054687505 0.9269999999999999 4.3724956054687505 0.855 L 4.3724956054687505 0.17999999999999994 Q 4.3724956054687505 0.12449999999999994 4.36424560546875 0.09824999999999995 Q 4.355995605468751 0.07199999999999984 4.331245605468751 0.062249999999999917 Q 4.306495605468751 0.05249999999999999 4.259995605468751 0.050999999999999934 L 4.259995605468751 0.020999999999999908 Q 4.283995605468751 0.022499999999999964 4.31999560546875 0.02400000000000002 Q 4.355995605468751 0.025499999999999856 4.39049560546875 0.025499999999999856 Q 4.426495605468751 0.025499999999999856 4.45949560546875 0.02400000000000002 Q 4.492495605468751 0.022499999999999964 4.519495605468751 0.020999999999999908 L 5.0999956054687505 0.7364999999999999 L 5.0999956054687505 0.2669999999999999 Q 5.0999956054687505 0.1845 5.09099560546875 0.14024999999999999 Q 5.081995605468751 0.09599999999999997 5.0512456054687505 0.07650000000000001 Q 5.02049560546875 0.05699999999999994 4.95449560546875 0.050999999999999934 L 4.95449560546875 0.020999999999999908 Q 4.9829956054687505 0.022499999999999964 5.0294956054687505 0.02400000000000002 Q 5.0759956054687505 0.025499999999999856 5.11649560546875 0.025499999999999856 Q 5.152495605468751 0.025499999999999856 5.18774560546875 0.02400000000000002 Q 5.222995605468751 0.022499999999999964 5.246995605468751 0.020999999999999908 M 6.146972900390626 0.020999999999999908 Q 6.140972900390626 0.08699999999999997 6.138722900390626 0.14849999999999997 Q 6.1364729003906255 0.20999999999999996 6.1364729003906255 0.243 Q 6.1364729003906255 0.2729999999999999 6.137972900390626 0.29999999999999993 Q 6.139472900390626 0.32699999999999996 6.140972900390626 0.345 L 6.106472900390625 0.345 Q 6.091472900390626 0.23549999999999993 6.059972900390625 0.17174999999999996 Q 6.028472900390626 0.10799999999999998 5.978222900390626 0.08174999999999999 Q 5.927972900390626 0.05549999999999988 5.860472900390626 0.05549999999999988 L 5.798972900390625 0.05549999999999988 Q 5.753972900390625 0.05549999999999988 5.732222900390625 0.06299999999999994 Q 5.710472900390625 0.07050000000000001 5.702972900390626 0.09224999999999994 Q 5.695472900390626 0.11399999999999999 5.695472900390626 0.16199999999999992 L 5.695472900390626 0.942 Q 5.695472900390626 0.9884999999999999 5.702972900390626 1.011 Q 5.710472900390625 1.0334999999999999 5.732222900390625 1.041 Q 5.753972900390625 1.0485 5.798972900390625 1.0485 L 5.872472900390625 1.0485 Q 5.939972900390625 1.0485 5.991722900390625 1.01925 Q 6.043472900390626 0.99 6.080222900390625 0.9195 Q 6.116972900390626 0.849 6.1364729003906255 0.729 L 6.170972900390626 0.729 Q 6.166472900390626 0.7769999999999999 6.166472900390626 0.855 Q 6.166472900390626 0.8895 6.167972900390626 0.9524999999999999 Q 6.169472900390626 1.0154999999999998 6.176972900390625 1.083 Q 6.100472900390626 1.08 6.004472900390626 1.07925 Q 5.908472900390626 1.0785 5.833472900390626 1.0785 Q 5.7824729003906254 1.0785 5.698472900390626 1.0785 Q 5.614472900390625 1.0785 5.519972900390625 1.07925 Q 5.425472900390625 1.08 5.344472900390626 1.083 L 5.344472900390626 1.053 Q 5.392472900390626 1.05 5.416472900390626 1.041 Q 5.440472900390626 1.032 5.448722900390625 1.005 Q 5.4569729003906255 0.978 5.4569729003906255 0.9239999999999999 L 5.4569729003906255 0.17999999999999994 Q 5.4569729003906255 0.12449999999999994 5.448722900390625 0.09824999999999995 Q 5.440472900390626 0.07199999999999984 5.415722900390626 0.062249999999999917 Q 5.390972900390626 0.05249999999999999 5.344472900390626 0.050999999999999934 L 5.344472900390626 0.020999999999999908 Q 5.425472900390625 0.022499999999999964 5.519972900390625 0.02400000000000002 Q 5.614472900390625 0.025499999999999856 5.698472900390626 0.025499999999999856 Q 5.7824729003906254 0.025499999999999856 5.833472900390626 0.025499999999999856 Q 5.9024729003906256 0.025499999999999856 5.990222900390625 0.02475000000000005 Q 6.077972900390625 0.02400000000000002 6.146972900390626 0.020999999999999908 M 5.912972900390626 0.5339999999999999 Q 5.912972900390626 0.5339999999999999 5.912972900390626 0.5489999999999999 Q 5.912972900390626 0.564 5.912972900390626 0.564 L 5.650472900390626 0.564 Q 5.650472900390626 0.564 5.650472900390626 0.5489999999999999 Q 5.650472900390626 0.5339999999999999 5.650472900390626 0.5339999999999999 L 5.912972900390626 0.5339999999999999 M 5.956472900390626 0.33599999999999997 Q 5.950472900390626 0.4215 5.951222900390626 0.4664999999999999 Q 5.951972900390626 0.5115 5.951972900390626 0.5489999999999999 Q 5.951972900390626 0.5865 5.953472900390626 0.6315 Q 5.954972900390626 0.6764999999999999 5.960972900390626 0.762 L 5.926472900390626 0.762 Q 5.918972900390625 0.7095 5.898722900390625 0.6645 Q 5.8784729003906255 0.6194999999999999 5.840972900390626 0.59175 Q 5.803472900390625 0.564 5.743472900390626 0.564 L 5.743472900390626 0.5339999999999999 Q 5.803472900390625 0.5339999999999999 5.839472900390626 0.501 Q 5.875472900390625 0.46799999999999997 5.894972900390625 0.4222499999999999 Q 5.914472900390626 0.37649999999999995 5.921972900390625 0.33599999999999997 L 5.956472900390626 0.33599999999999997 M 6.673431152343751 0.0014999999999998348 Q 6.761931152343751 0.0014999999999998348 6.809931152343751 0.02024999999999988 Q 6.857931152343751 0.038999999999999924 6.89243115234375 0.05999999999999983 Q 6.910431152343751 0.07050000000000001 6.9216811523437505 0.07574999999999998 Q 6.932931152343751 0.08099999999999996 6.94343115234375 0.08099999999999996 Q 6.96743115234375 0.08099999999999996 6.976431152343751 0.014999999999999902 L 7.010931152343751 0.014999999999999902 Q 7.009431152343751 0.04349999999999987 7.007181152343751 0.08324999999999994 Q 7.004931152343751 0.123 7.004181152343751 0.1874999999999999 Q 7.003431152343751 0.2519999999999999 7.003431152343751 0.357 L 6.9689311523437505 0.357 Q 6.962931152343751 0.2789999999999999 6.932931152343751 0.2054999999999999 Q 6.902931152343751 0.1319999999999999 6.84818115234375 0.08474999999999999 Q 6.793431152343751 0.03749999999999987 6.713931152343751 0.03749999999999987 Q 6.6419311523437505 0.03749999999999987 6.5954311523437505 0.07799999999999985 Q 6.548931152343751 0.11849999999999994 6.548931152343751 0.1904999999999999 Q 6.548931152343751 0.25049999999999994 6.578931152343751 0.2932499999999999 Q 6.608931152343751 0.33599999999999997 6.666681152343751 0.37649999999999995 Q 6.724431152343751 0.4169999999999999 6.806931152343751 0.474 Q 6.878931152343751 0.5205 6.935931152343751 0.567 Q 6.9929311523437505 0.6134999999999999 7.027431152343751 0.6719999999999999 Q 7.0619311523437505 0.7304999999999999 7.0619311523437505 0.8114999999999999 Q 7.0619311523437505 0.9105 7.010181152343751 0.975 Q 6.958431152343751 1.0394999999999999 6.8744311523437505 1.07175 Q 6.790431152343751 1.1039999999999999 6.689931152343751 1.1039999999999999 Q 6.596931152343751 1.1039999999999999 6.54143115234375 1.0859999999999999 Q 6.485931152343751 1.068 6.44843115234375 1.0485 Q 6.415431152343751 1.0274999999999999 6.397431152343751 1.0274999999999999 Q 6.373431152343751 1.0274999999999999 6.364431152343751 1.0935 L 6.32993115234375 1.0935 Q 6.33293115234375 1.0574999999999999 6.33368115234375 1.0095 Q 6.33443115234375 0.9615 6.3351811523437505 0.88425 Q 6.3359311523437505 0.8069999999999999 6.3359311523437505 0.6884999999999999 L 6.370431152343751 0.6884999999999999 Q 6.37643115234375 0.7875 6.40418115234375 0.87375 Q 6.431931152343751 0.96 6.489681152343751 1.0125 Q 6.5474311523437505 1.065 6.643431152343751 1.065 Q 6.721431152343751 1.065 6.775431152343751 1.023 Q 6.8294311523437505 0.981 6.8294311523437505 0.897 Q 6.8294311523437505 0.8039999999999999 6.766431152343751 0.74325 Q 6.703431152343751 0.6824999999999999 6.604431152343751 0.6179999999999999 Q 6.533931152343751 0.5714999999999999 6.47243115234375 0.5249999999999999 Q 6.410931152343751 0.4784999999999999 6.374181152343751 0.4185 Q 6.3374311523437505 0.35849999999999993 6.3374311523437505 0.2759999999999999 Q 6.3374311523437505 0.1815 6.3846811523437506 0.12074999999999991 Q 6.431931152343751 0.05999999999999983 6.509181152343751 0.030749999999999833 Q 6.586431152343751 0.0014999999999998348 6.673431152343751 0.0014999999999998348 M 8.08940771484375 0.020999999999999908 Q 8.083407714843752 0.09749999999999992 8.081157714843751 0.16799999999999993 Q 8.078907714843751 0.23849999999999993 8.078907714843751 0.2759999999999999 Q 8.078907714843751 0.30899999999999994 8.080407714843751 0.33899999999999997 Q 8.081907714843751 0.369 8.083407714843752 0.3899999999999999 L 8.04890771484375 0.3899999999999999 Q 8.024907714843751 0.2639999999999999 7.988157714843751 0.1904999999999999 Q 7.951407714843751 0.11699999999999999 7.900407714843751 0.08624999999999994 Q 7.849407714843751 0.05549999999999988 7.780407714843751 0.05549999999999988 L 7.745907714843751 0.05549999999999988 L 7.745907714843751 0.9119999999999999 Q 7.745907714843751 0.972 7.758657714843751 1.002 Q 7.77140771484375 1.032 7.805907714843751 1.04175 Q 7.840407714843751 1.0514999999999999 7.906407714843751 1.053 L 7.906407714843751 1.083 Q 7.859907714843751 1.0815 7.782657714843751 1.08 Q 7.7054077148437505 1.0785 7.621407714843751 1.0785 Q 7.53890771484375 1.0785 7.465407714843751 1.08 Q 7.391907714843751 1.0815 7.346907714843751 1.083 L 7.346907714843751 1.053 Q 7.414407714843751 1.0514999999999999 7.448907714843751 1.04175 Q 7.483407714843751 1.032 7.495407714843751 1.002 Q 7.507407714843751 0.972 7.507407714843751 0.9119999999999999 L 7.507407714843751 0.05549999999999988 L 7.474407714843751 0.05549999999999988 Q 7.405407714843751 0.05549999999999988 7.3544077148437506 0.08624999999999994 Q 7.30340771484375 0.11699999999999999 7.267407714843751 0.18974999999999997 Q 7.231407714843751 0.26249999999999996 7.204407714843751 0.3899999999999999 L 7.169907714843751 0.3899999999999999 Q 7.172907714843751 0.369 7.173657714843751 0.33899999999999997 Q 7.174407714843751 0.30899999999999994 7.174407714843751 0.2759999999999999 Q 7.174407714843751 0.23849999999999993 7.172157714843751 0.16799999999999993 Q 7.169907714843751 0.09749999999999992 7.16390771484375 0.020999999999999908 Q 7.23290771484375 0.022499999999999964 7.314657714843751 0.02400000000000002 Q 7.39640771484375 0.025499999999999856 7.478907714843751 0.025499999999999856 Q 7.56140771484375 0.025499999999999856 7.627407714843751 0.025499999999999856 Q 7.694907714843751 0.025499999999999856 7.776657714843751 0.025499999999999856 Q 7.858407714843751 0.025499999999999856 7.940907714843751 0.02400000000000002 Q 8.023407714843751 0.022499999999999964 8.08940771484375 0.020999999999999908" fill="#023543" fill-rule="nonzero"></path></g><g></g></g><defs><clipPath id="SvgjsClipPath3381"><path d=" M -5.175607213066912 -0.5943599825682743 h 4.775607213066912 v 2.2717199651365485 h -4.775607213066912 Z"></path></clipPath><clipPath id="SvgjsClipPath33761033a0d7-4ff4-4eb7-add2-0556c3107e4a"><path d=" M -5.175607213066912 -0.594359982568274 L -0.40000000000000036 -0.594359982568274 L -0.40000000000000036 1.677359982568274 L -5.175607213066912 1.677359982568274 Z"></path></clipPath></defs></svg>